<svg xmlns="http://www.w3.org/2000/svg" xmlns:xlink="http://www.w3.org/1999/xlink" id="Layer_1" x="0" y="0" enable-background="new 0 0 367.1 150.4" version="1.1" viewBox="0 0 367.1 150.4" xml:space="preserve"><switch><g><path fill="#51443B" d="M367.1,77.2c-0.1-12.4-4.2-18.3-18.5-23.3c-11-3.9-22.1-0.1-33.4,5.6c0,0-15.9-15.2-35.4-2 c-1.4,1-4.8,3.3-4.8,3.3v-7.3l-16.4-0.1v5.1c0,0,0.1,38.7,0.1,58c0,1.5,0.2,2.9,0.3,4.7c5.4,0,10.2,0,15.5,0c0-2.1,0-3.9,0-5.7 c0-10.7-0.1-21.3,0.1-32c0.2-9.5,6.9-16.1,16.1-16.1c8.7,0,13.9,5.7,14,15.9c0.1,10.8,0,21.7,0.1,32.5c0,1.8,0.2,3.6,0.3,5.4 c5.5,0,10.5,0,16,0c0-13.1,0.1-25.7,0-38.4c0-4.7,1.5-8.5,5.1-11.4c4.9-4,10.4-5.2,16.4-3c5.8,2.2,8.3,7.2,8.4,13.1 c0.3,11.3,0.2,22.7,0.3,34c0,1.9-0.1,3.8,0,5.7c5.5,0,10.7,0,16,0C367.1,106.1,367.2,91.6,367.1,77.2z"/><path fill="#51443B" d="M100.3,51.9C80,51.8,65.6,66.3,65.5,87c-0.1,22,12.8,35.6,34.2,35.7c21.3,0.1,34.8-13.5,35-35.1 C134.7,66.8,120.5,52,100.3,51.9z M116.8,94.4c-1.8,9.8-6.9,14.4-16.6,14.4c-9.4,0-15.7-4.7-17-14c-0.8-5.4-0.6-11.3,0.6-16.7 c1.9-8.4,8.6-12.8,16.9-12.5c8.6,0.3,13.9,4.7,15.8,13.5c0.6,2.7,0.9,5.6,0.9,8.1C117.5,89.9,117.2,92.2,116.8,94.4z"/><path fill="#51443B" d="M56.9,106.7c-10.8,0-21.2,0-32.9,0c10.3-13.4,32-42,32-42V53.2c0,0-36.1,0-54.1,0c0,4.7,0,9.1,0,13.9 c10.1,0,19.9,0,31,0c-1.7,2.4-2.6,3.8-3.6,5.1C21.1,82.9,0,110.4,0,110.4v7.8v3.3c0,0,37.2-0.1,53.4-0.1c1.1,0,2.2-0.2,3.5-0.3 C56.9,116.4,56.9,112,56.9,106.7z"/><path fill="#EE7A2E" d="M243.7,22.6c-4.9-2.1-5.7-4-1.6-8.4c2.6-2.8,4.6-4.9,7.2-7.7C245.1-1,230.3-2,222.6,3.3 c-8.1,5.6-11.2,16-7.6,25.8c2.9,7.8,13.9,14.5,22,13.3c10.3-1.5,17.6-7.8,18.3-16.2c0.1-1.1,0.1-2.7-0.3-2.7 C251.8,23.7,245.6,23.4,243.7,22.6z"/><path fill="#51443B" d="M241.8,53.8c-5.1,0-10,0-15,0c0,22.5,0,44.6,0,67.4c4.5-2.4,15.3-8.4,15.3-8.4v-4.7c0,0,0.1-33.6,0.1-50.9 C242.2,56.1,241.9,55,241.8,53.8z"/><path fill="#51443B" d="M211.2,77c-2.4-12.7-12-22.1-24.5-24.6c-9.1-1.8-16.7,0.4-23.4,8.6c-0.1-2.9,0-9.1,0-9.1H160h-12.9v16.7 v42.5v39.4h16c0,0-0.1-18.3-0.1-27.8v-6c3.8,1.3,6.9,2.4,10.1,3.3c16.5,4.6,30.4-2.7,36.2-18.8C212.1,93.2,212.8,85.2,211.2,77z M180.7,105.8c-9.5,1.2-15.8-3-17.3-11.3v-17c0.9-3,3-5.8,6.7-8c11.4-6.8,24.9-0.7,26.8,12.5C198.6,94.7,192.1,104.4,180.7,105.8z"/></g></switch></svg>